<?xml version="1.0" encoding="UTF-8"?>
<svg id="Lager_1" data-name="Lager 1" xmlns="http://www.w3.org/2000/svg" viewBox="0 0 494.4 493">
  <g id="Lager_1-2" data-name="Lager 1-2">
    <path d="m494.4,247.2c0,127.6-96.6,232.6-220.7,245.8-24.4-57.5,19.3-70.9,19.3-70.9,117.1-29.2,111.2-106.4,111.2-106.4-15.3-2.4-47.7-31.6-65.6-82-18-50.4-79.3-61.9-79.3-61.9v-65.2l-43.4,38.3v-65.4S51.6,179.9,46.8,392C17.4,351.3,0,301.3,0,247.2,0,110.7,110.7,0,247.3,0s247.1,110.7,247.1,247.2h0Z"/>
    <path d="m330.5,284h-32.1s-20.9-1.3-25.5-31.1c0,0,37.2-4.6,47.2,8,9.9,12.6,10.4,23.1,10.4,23.1Z"/>
  </g>
</svg>